<?xml version="1.0" standalone="no"?>
<!DOCTYPE svg PUBLIC "-//W3C//DTD SVG 20010904//EN"
 "http://www.w3.org/TR/2001/REC-SVG-20010904/DTD/svg10.dtd">
<svg version="1.0" xmlns="http://www.w3.org/2000/svg"
 width="1080.000000pt" height="1080.000000pt" viewBox="0 0 1080.000000 1080.000000"
 preserveAspectRatio="xMidYMid meet">

<g transform="translate(0.000000,1080.000000) scale(0.100000,-0.100000)"
fill="#000000" stroke="none">
<path d="M3077 7508 c-3 -2006 -5 -2224 -20 -2328 -36 -250 -80 -407 -154
-555 -137 -275 -349 -414 -684 -447 -136 -14 -293 -2 -423 32 -436 115 -646
521 -673 1308 l-6 182 -259 0 -258 0 0 -134 c0 -177 16 -408 41 -581 107 -753
450 -1158 1082 -1276 143 -27 465 -37 627 -20 142 15 354 69 462 118 219 98
397 251 523 448 77 120 163 322 201 473 10 39 21 72 24 72 3 0 19 -43 34 -96
36 -117 136 -324 204 -420 227 -319 582 -505 1112 -580 144 -21 616 -30 794
-15 516 43 883 186 1138 443 194 195 331 472 397 800 58 288 55 124 58 2556
l4 2232 -276 0 -275 0 0 -2122 c0 -1379 -4 -2163 -10 -2238 -57 -627 -284
-971 -735 -1109 -204 -62 -437 -87 -715 -77 -312 11 -502 50 -685 141 -330
164 -493 440 -562 948 -15 110 -17 338 -20 2290 l-4 2167 -469 0 -470 0 -3
-2212z"/>
<path d="M7952 9694 c-141 -37 -264 -157 -314 -304 -16 -49 -19 -80 -16 -168
3 -102 5 -113 41 -184 79 -161 254 -268 436 -268 58 0 140 23 204 58 47 25 48
25 66 6 17 -18 237 -267 664 -752 108 -123 197 -226 197 -228 0 -3 -27 -30
-60 -61 -89 -82 -138 -177 -154 -300 -15 -118 40 -284 124 -371 l42 -43 -34
-37 c-18 -20 -205 -231 -415 -468 l-382 -431 -68 -6 c-281 -23 -487 -302 -419
-567 24 -95 52 -145 119 -217 95 -101 250 -163 377 -151 l51 5 183 -206 c513
-580 796 -902 796 -906 0 -3 -13 -29 -29 -58 -86 -153 -83 -351 6 -480 94
-136 276 -224 444 -215 306 18 518 393 380 672 -93 188 -335 303 -531 251 -35
-9 -76 -23 -91 -30 -26 -14 -27 -13 -186 168 -88 100 -300 341 -471 535 l-311
354 48 49 c211 214 178 560 -69 720 l-24 16 109 124 c60 68 146 165 190 214
252 284 380 428 438 495 l66 74 118 1 c134 1 186 16 282 82 214 148 251 497
73 695 -77 85 -182 135 -312 146 l-76 7 -141 160 c-78 88 -294 333 -481 544
l-340 385 19 38 c132 258 -18 578 -306 653 -73 19 -172 18 -243 -1z m250 -208
c87 -42 151 -149 151 -252 0 -188 -221 -323 -391 -238 -61 30 -96 69 -130 143
-21 45 -24 64 -20 120 5 72 22 112 70 166 76 87 212 113 320 61z m1391 -1794
c96 -43 156 -134 157 -238 0 -142 -79 -243 -217 -275 -115 -27 -253 47 -303
163 -18 43 -21 65 -18 119 14 192 206 308 381 231z m-1177 -1769 c63 -21 145
-102 162 -159 7 -23 12 -68 12 -101 0 -145 -127 -263 -283 -263 -188 1 -321
233 -227 397 69 121 204 171 336 126z m1438 -1855 c61 -18 140 -101 160 -168
57 -192 -65 -360 -262 -360 -125 0 -202 57 -238 176 -53 177 72 364 244 364
30 0 73 -5 96 -12z"/>
<path d="M5043 3206 c-351 -85 -530 -494 -363 -826 59 -116 182 -221 304 -259
319 -98 660 84 741 395 19 75 19 213 0 289 -51 199 -205 355 -396 400 -77 18
-214 18 -286 1z m301 -85 c45 -23 87 -56 130 -102 203 -215 208 -537 11 -734
-97 -96 -228 -146 -350 -130 -161 20 -328 176 -385 364 -25 79 -27 215 -4 292
35 118 108 223 195 281 85 56 130 69 240 65 87 -2 103 -6 163 -36z"/>
<path d="M7764 3205 c-148 -32 -300 -145 -368 -274 -48 -92 -67 -169 -67 -276
0 -162 50 -285 161 -395 155 -156 355 -199 623 -135 l117 28 0 88 c0 52 -4 89
-10 89 -5 0 -18 -17 -29 -37 -57 -111 -194 -162 -349 -129 -96 20 -163 57
-242 136 -205 204 -216 519 -24 720 89 94 200 140 334 140 130 0 212 -42 247
-125 10 -25 21 -45 26 -45 13 0 8 180 -5 184 -183 49 -293 57 -414 31z"/>
<path d="M8783 3206 c-351 -85 -530 -494 -363 -826 59 -116 182 -221 304 -259
319 -98 660 84 741 395 19 75 19 213 0 289 -51 199 -205 355 -396 400 -77 18
-214 18 -286 1z m301 -85 c45 -23 87 -56 130 -102 203 -215 208 -537 11 -734
-97 -96 -228 -146 -350 -130 -161 20 -328 176 -385 364 -25 79 -27 215 -4 292
35 118 108 223 195 281 85 56 130 69 240 65 87 -2 103 -6 163 -36z"/>
<path d="M9847 3209 c-94 -22 -182 -90 -214 -167 -22 -53 -19 -164 8 -218 28
-58 97 -113 193 -153 42 -17 110 -45 152 -62 142 -59 199 -121 199 -219 -1
-104 -69 -194 -167 -221 -51 -13 -155 -13 -206 0 -77 21 -152 94 -152 147 0
13 -4 24 -10 24 -15 0 -13 -180 3 -184 144 -43 212 -56 284 -56 210 0 348 107
361 280 6 90 -16 156 -73 214 -48 49 -107 82 -268 145 -173 69 -227 121 -227
216 1 87 46 157 122 190 48 19 169 20 235 0 58 -17 103 -62 103 -101 0 -13 5
-24 10 -24 6 0 10 34 10 83 l0 82 -107 18 c-115 18 -195 20 -256 6z"/>
<path d="M611 3171 l29 -29 0 -477 c0 -407 -2 -480 -15 -505 -9 -17 -22 -30
-30 -30 -8 0 -15 -4 -15 -10 0 -6 120 -10 340 -10 l340 0 0 95 c0 94 -12 124
-25 64 -4 -16 -22 -46 -41 -65 l-35 -34 -204 0 -205 0 0 250 0 250 156 0 c87
0 164 -5 174 -10 11 -6 26 -23 34 -38 14 -25 15 -20 15 83 -1 103 -2 108 -15
78 -7 -18 -22 -37 -33 -43 -11 -6 -86 -10 -176 -10 l-155 0 2 208 3 207 192 0
c187 0 192 -1 216 -23 14 -13 28 -35 31 -48 13 -49 26 -22 26 51 l0 75 -319 0
-319 0 29 -29z"/>
<path d="M1401 3185 c15 -8 32 -29 38 -46 7 -22 11 -179 11 -481 0 -480 -3
-513 -50 -525 -65 -17 16 -23 320 -23 l340 0 0 106 c0 67 -4 103 -10 99 -5 -3
-10 -16 -10 -28 0 -33 -35 -84 -69 -102 -24 -12 -68 -15 -221 -15 l-190 0 0
486 0 486 29 29 29 29 -121 0 c-112 -1 -120 -2 -96 -15z"/>
<path d="M2171 3185 c15 -8 32 -29 38 -46 7 -22 11 -179 11 -481 0 -480 -3
-513 -50 -525 -65 -17 16 -23 320 -23 l340 0 0 95 c0 95 -12 125 -24 61 -4
-22 -20 -46 -42 -65 l-35 -31 -199 0 -200 0 0 250 0 250 154 0 c140 0 156 -2
180 -21 14 -11 26 -27 26 -35 0 -8 5 -14 10 -14 6 0 10 40 10 100 0 60 -4 100
-10 100 -5 0 -10 -6 -10 -14 0 -8 -12 -24 -26 -35 -24 -19 -40 -21 -180 -21
l-154 0 0 210 0 210 174 0 c97 0 186 -5 204 -11 32 -11 62 -47 62 -74 0 -8 5
-15 10 -15 6 0 10 32 10 75 l0 75 -322 0 c-287 -1 -320 -2 -297 -15z"/>
<path d="M2900 3108 c0 -64 3 -88 10 -78 5 8 10 22 10 31 0 9 13 31 29 48 l29
31 116 0 116 0 0 -483 c0 -421 -2 -485 -16 -505 -8 -12 -22 -22 -30 -22 -8 0
-14 -4 -14 -10 0 -6 47 -10 123 -10 l122 0 -27 23 c-15 12 -32 35 -38 50 -6
18 -10 198 -10 493 l0 464 120 0 c115 0 122 -1 146 -25 13 -13 27 -38 30 -55
13 -62 24 -39 24 49 l0 91 -370 0 -370 0 0 -92z"/>
<path d="M3746 3188 c43 -20 44 -38 44 -536 0 -416 -2 -480 -16 -500 -8 -12
-22 -22 -30 -22 -8 0 -14 -4 -14 -10 0 -6 47 -10 123 -10 l122 0 -28 23 c-15
12 -32 38 -37 57 -6 19 -10 136 -10 259 l0 224 41 -6 c22 -3 42 -7 43 -9 2 -1
76 -112 165 -245 187 -281 201 -295 312 -301 46 -3 69 -1 69 7 0 6 -8 11 -18
11 -11 0 -34 15 -53 33 -37 37 -340 486 -338 502 1 6 20 16 44 22 70 21 135
72 169 133 25 46 30 65 31 125 0 126 -59 202 -189 240 -61 18 -466 21 -430 3z
m314 -49 c129 -21 190 -83 190 -196 0 -65 -24 -125 -61 -160 -50 -46 -157 -72
-243 -59 l-46 7 0 203 c0 111 3 206 7 209 9 10 79 8 153 -4z"/>
<path d="M5901 3189 c14 -5 31 -21 38 -35 8 -18 11 -163 11 -495 0 -402 -2
-474 -15 -499 -9 -17 -22 -30 -30 -30 -8 0 -15 -4 -15 -10 0 -6 37 -10 90 -10
53 0 90 4 90 10 0 6 -7 10 -15 10 -8 0 -21 13 -30 30 -13 25 -15 89 -13 461
l3 432 296 -469 296 -469 51 -3 52 -3 0 501 c0 540 2 559 52 580 16 6 -6 9
-77 9 -77 0 -95 -3 -78 -11 42 -20 43 -43 41 -490 l-3 -427 -295 464 -295 465
-90 -1 c-69 0 -84 -3 -64 -10z"/>
<path d="M6967 3176 l28 -24 3 -476 c2 -401 0 -481 -12 -511 -8 -19 -22 -35
-30 -35 -9 0 -16 -4 -16 -10 0 -6 45 -10 115 -10 63 0 115 2 115 5 0 3 -12 17
-27 30 l-28 23 -3 459 c-2 252 0 473 3 492 4 18 17 44 30 57 l24 24 -115 0
-115 0 28 -24z"/>
</g>
</svg>
